<svg xmlns="http://www.w3.org/2000/svg" width="64" height="64"><g fill="none" fill-rule="evenodd"><path fill="#003454" d="M45.855 1.842a.8.8 0 01.793.7l.006.1v15.763a.8.8 0 01-.425.706l-.101.045-13.854 5.038a.783.783 0 01-.458.027l-.09-.027-13.854-5.038a.8.8 0 01-.518-.641l-.008-.11V2.643c0-.408.305-.745.7-.795l.1-.006h27.709zM36.238 7.85h-8.476v13.199L32 22.589l4.238-1.54v-13.2zm8.817 0h-7.217v12.618l7.217-2.624V7.85zm-18.893 0h-7.217v9.994l7.217 2.624V7.85zm18.893-4.41h-26.11v2.81h26.11V3.44z"/><path fill="#F7BF4F" d="M32 18.836c-11.944 0-21.662 9.717-21.662 21.66 0 11.945 9.718 21.662 21.662 21.662 11.944 0 21.662-9.717 21.662-21.662 0-11.943-9.718-21.66-21.662-21.66"/><path fill="#003454" d="M33.694 30.123c-4.337-.03-7.885 3.63-7.885 7.967v7.496c0 2.03-1.261 3.75-3.007 4.344-.325.11-.363.555-.066.727l2.216 1.278a1.08 1.08 0 001.19-.075 7.817 7.817 0 003.147-6.274v-7.537c0-2.392 1.889-4.41 4.28-4.447a4.349 4.349 0 014.417 4.417C37.95 40.41 35.93 42.3 33.54 42.3h-1.926a.536.536 0 00-.537.537v2.405c0 .297.24.537.537.537h1.885c4.337 0 7.997-3.548 7.967-7.885a7.828 7.828 0 00-7.772-7.771"/></g></svg>